<svg xmlns="http://www.w3.org/2000/svg" fill="none" viewBox="0 0 49 44"><path stroke="#DC183B" stroke-miterlimit="79.84" stroke-width="2" d="M15.28 6V4a1 1 0 0 1 1-1h8a1 1 0 0 1 1 1v2M15.28 19v5M25.28 20v4M5.28 24h38M43.28 41h-38"/><path stroke="#DC183B" stroke-miterlimit="79.84" stroke-width="2" d="M5.28 43h-4V22h4v21ZM47.28 43h-4V22h4v21Z" clip-rule="evenodd"/><path stroke="#505050" stroke-miterlimit="79.84" stroke-width="2" d="m34.28 1-7 7h-15a1 1 0 0 0-1 1v9a1 1 0 0 0 1 1h15a1 1 0 0 0 1-1v-4l8-8h10a1 1 0 0 0 1-1V2a1 1 0 0 0-1-1h-12Z" clip-rule="evenodd"/></svg>