<svg xmlns="http://www.w3.org/2000/svg" fill="none" viewBox="0 0 49 48"><path stroke="#505050" stroke-miterlimit="79.84" stroke-width="2" d="m34.008 24.464-.935-4.376V1.338"/><path stroke="#DC183B" stroke-miterlimit="79.84" stroke-width="2" d="M24.766 28.432a4.676 4.676 0 0 0 4.574 3.733 4.673 4.673 0 0 0 4.668-4.669"/><path stroke="#505050" stroke-miterlimit="79.84" stroke-width="2" d="M1.328 6.022h10.271c7.209 0 13.072 5.863 13.072 13.072v5.427M45.212 24.521l.93-4.203V1.338"/><path stroke="#DC183B" stroke-miterlimit="79.84" stroke-width="2" d="M34.94 47.068v-4.801c5.904-2.315 10.272-8.056 10.272-14.77M13.495 28.432c.377 6.433 4.44 11.834 10.24 13.957v4.68"/><path stroke="#505050" stroke-miterlimit="79.84" stroke-width="2" d="M1.328 17.226h10.271a1.87 1.87 0 0 1 1.868 1.868v5.602M1.328 3.223v9.3M1.328 14.39v5.639M33.072 11.589h13.07M4.13 9.722h3.733M9.731 9.722h1.867M42.409 4.12v1.867M42.409 14.39v1.867M42.409 18.126v1.867M32.139 42.4H30.27M28.404 42.4h-1.867"/><path stroke="#DC183B" stroke-miterlimit="79.84" stroke-width="2" d="M10.665 28.432H20"/><path stroke="#505050" stroke-miterlimit="79.84" stroke-width="2" d="M20 24.697h-9.335M27.47 24.697H21.87"/><path stroke="#DC183B" stroke-miterlimit="79.84" stroke-width="2" d="M21.869 28.432h5.601"/><path stroke="#505050" stroke-miterlimit="79.84" stroke-width="2" d="M31.204 1.356h9.337M42.409 1.356h5.602"/><path stroke="#DC183B" stroke-miterlimit="79.84" stroke-width="2" d="M31.204 28.432h9.337"/><path stroke="#505050" stroke-miterlimit="79.84" stroke-width="2" d="M40.541 24.697h-9.337M48.01 24.697H42.41"/><path stroke="#DC183B" stroke-miterlimit="79.84" stroke-width="2" d="M42.409 28.432h5.602"/></svg>