<svg xmlns="http://www.w3.org/2000/svg" fill="none" viewBox="0 0 49 44"><path stroke="#DC183B" stroke-miterlimit="79.84" stroke-width="2" d="M18.8 17v10a2 2 0 0 1-4 0V5h-12v22c0 7.732 6.269 14 14 14 7.733 0 14-6.268 14-14V17a2 2 0 1 1 4 0v22h12V17c0-7.732-6.267-14-14-14-7.731 0-14 6.268-14 14Z" clip-rule="evenodd"/><path stroke="#DC183B" stroke-miterlimit="79.84" stroke-width="2" d="M15.8 5h-14V1h14v4ZM47.8 43h-14v-4h14v4Z" clip-rule="evenodd"/><path stroke="#505050" stroke-miterlimit="79.84" stroke-width="2" d="M8.8 19v8a8 8 0 0 0 8 8h3"/><path stroke="#505050" stroke-miterlimit="79.84" stroke-width="2" d="m16.8 32 3 3-3 3M40.8 25v-8a8 8 0 0 0-8-8h-2"/><path stroke="#505050" stroke-miterlimit="79.84" stroke-width="2" d="m43.8 22-3 3-3-3"/></svg>