<svg xmlns="http://www.w3.org/2000/svg" fill="none" viewBox="0 0 61 39"><path stroke="#505050" stroke-miterlimit="79.84" stroke-width="2" d="M56.285 29.978H46.28M41.278 8.719h15.007M3.762 8.719h13.756M13.767 31.228H3.762M.01 6.218h3.752V33.73H.011M60.036 33.73h-3.751V6.218h3.751"/><path stroke="#DC183B" stroke-miterlimit="79.84" stroke-width="2" d="M44.835 27.416a16.802 16.802 0 0 0 1.446-6.817c0-8.69-6.567-15.838-15.007-16.773v-.703c0-1.024-.828-1.907-1.852-1.907h-.049c-1.024 0-1.85.883-1.85 1.907v.703c-8.441.935-15.007 8.083-15.007 16.773 0 2.427.522 4.73 1.445 6.817l-.626.36a1.866 1.866 0 0 0-.684 2.55l.02.032a1.866 1.866 0 0 0 2.54.668l.648-.374c3.076 4.137 7.987 6.829 13.54 6.829 5.55 0 10.461-2.692 13.538-6.83l.648.375a1.866 1.866 0 0 0 2.56-.7 1.866 1.866 0 0 0-.685-2.55l-.625-.36Zm-27.317-6.817c0-5.921 4.336-10.817 10.005-11.719v7.778a4.365 4.365 0 0 0-2.501 3.94c0 .14.027.272.04.409l-6.73 3.886a11.84 11.84 0 0 1-.814-4.294Zm11.88 11.88c-3.7 0-7.002-1.692-9.182-4.343l6.753-3.898a4.365 4.365 0 0 0 4.858 0l6.753 3.898a11.856 11.856 0 0 1-9.181 4.343Zm11.066-7.586-6.73-3.886c.013-.137.041-.27.041-.408a4.367 4.367 0 0 0-2.5-3.94V8.88c5.667.902 10.004 5.798 10.004 11.719 0 1.515-.296 2.96-.815 4.294Z" clip-rule="evenodd"/></svg>