<svg xmlns="http://www.w3.org/2000/svg" fill="none" viewBox="0 0 20 21"><path stroke="#3E3E3E" stroke-linecap="round" stroke-linejoin="round" stroke-width="2" d="M7 19.733v-7.4c0-.56 0-.84.109-1.054a1 1 0 0 1 .437-.437c.214-.109.494-.109 1.054-.109h2.8c.56 0 .84 0 1.054.11a1 1 0 0 1 .437.436c.109.214.109.494.109 1.054v7.4M9.018 1.497 2.235 6.772c-.453.353-.68.53-.843.75a2 2 0 0 0-.318.65C1 8.437 1 8.724 1 9.298v7.235c0 1.12 0 1.68.218 2.108a2 2 0 0 0 .874.874c.428.218.988.218 2.108.218h11.6c1.12 0 1.68 0 2.108-.218a2 2 0 0 0 .874-.874c.218-.428.218-.988.218-2.108V9.298c0-.574 0-.861-.074-1.126a2.002 2.002 0 0 0-.318-.65c-.163-.22-.39-.397-.843-.75l-6.783-5.275c-.351-.273-.527-.41-.72-.462a1 1 0 0 0-.523 0c-.194.052-.37.189-.721.462Z"/></svg>