<svg xmlns="http://www.w3.org/2000/svg" fill="none" viewBox="0 0 29 29"><path stroke="#fff" stroke-miterlimit="79.84" stroke-width="1.442" d="M27.697 14.349C27.697 6.98 21.717 1 14.35 1S1 6.981 1 14.35c0 7.367 5.98 13.348 13.349 13.348 7.367 0 13.348-5.98 13.348-13.348Z" clip-rule="evenodd"/><path fill="#fff" d="M8.741 14.299a462.974 462.974 0 0 1 8.37-3.883c1.586-.719 2.073-.581 1.83 1.01-.174 1.143-.677 4.928-1.078 7.284-.238 1.397-.771 1.563-1.61.958-.403-.29-2.44-1.761-2.882-2.107-.403-.314-.96-.693-.262-1.439a962.16 962.16 0 0 1 3.144-3.284c.167-.173-.042-.458-.234-.32-1.71 1.239-4.08 2.957-4.38 3.18-.457.339-.894.494-1.68.247-.593-.186-1.173-.408-1.399-.493-.87-.325-.663-.748.181-1.153Z"/></svg>