<svg xmlns="http://www.w3.org/2000/svg" fill="none" viewBox="0 0 29 30"><path stroke="#fff" stroke-miterlimit="79.84" stroke-width="1.442" d="M28.21 15.046c0-7.368-5.98-13.349-13.349-13.349-7.367 0-13.348 5.981-13.348 13.349s5.98 13.349 13.348 13.349 13.35-5.981 13.35-13.35Z" clip-rule="evenodd"/><path fill="#fff" fill-rule="evenodd" d="M15.302 19.858s.273-.03.414-.177c.128-.136.123-.392.123-.392s-.017-1.193.549-1.37c.555-.173 1.27 1.155 2.028 1.665.574.387 1.008.303 1.008.303l2.026-.029s1.06-.064.557-.882c-.04-.067-.293-.605-1.506-1.711-1.27-1.156-1.1-.97.43-2.972.931-1.218 1.305-1.964 1.187-2.282-.11-.305-.796-.224-.796-.224l-2.28.015s-.169-.023-.295.05c-.123.073-.202.241-.202.241s-.36.943-.841 1.746c-1.017 1.692-1.422 1.782-1.589 1.677-.387-.245-.29-.984-.29-1.51 0-1.64.255-2.325-.492-2.502-.25-.059-.431-.097-1.066-.104-.814-.008-1.502.003-1.893.19-.259.125-.46.402-.336.42.15.02.491.09.671.33.234.314.227 1.014.227 1.014s.133 1.932-.314 2.17c-.308.166-.73-.17-1.634-1.706-.465-.786-.815-1.656-.815-1.656s-.067-.163-.188-.25a.967.967 0 0 0-.35-.138l-2.168.013s-.325.01-.444.148c-.106.123-.009.379-.009.379s1.697 3.897 3.619 5.861c1.761 1.8 3.762 1.683 3.762 1.683h.907Z" clip-rule="evenodd"/></svg>