<svg xmlns="http://www.w3.org/2000/svg" fill="none" viewBox="0 0 15 15"><path stroke="#FB7205" stroke-linecap="round" stroke-linejoin="round" d="M5.667 7.667 7 9l3-3m1.6-3.001c.138.332.402.596.733.734l1.164.482a1.355 1.355 0 0 1 .733 1.77l-.481 1.163a1.353 1.353 0 0 0 0 1.038l.48 1.162a1.354 1.354 0 0 1-.733 1.771l-1.162.482c-.332.137-.596.4-.734.732l-.482 1.164a1.356 1.356 0 0 1-1.77.733l-1.163-.482a1.355 1.355 0 0 0-1.037.001l-1.163.481a1.355 1.355 0 0 1-1.77-.732l-.482-1.164a1.355 1.355 0 0 0-.732-.734l-1.164-.482a1.355 1.355 0 0 1-.734-1.77l.482-1.162a1.355 1.355 0 0 0 0-1.037l-.482-1.164a1.355 1.355 0 0 1 .734-1.772L3 3.732c.331-.137.595-.4.733-.732l.482-1.163a1.355 1.355 0 0 1 1.77-.734l1.163.482c.332.137.705.137 1.037-.001l1.164-.48a1.355 1.355 0 0 1 1.77.733l.482 1.164v-.002Z"/></svg>