<svg xmlns="http://www.w3.org/2000/svg" fill="none" viewBox="0 0 140 87"><rect width="11" height="11" x="2.5" y="53.792" fill="#FF1601" rx="2"/><rect width="11" height="11" x="128.5" y="53.792" fill="#FF1601" rx="2"/><rect width="16" height="64" x="15.5" y=".792" fill="#FF1601" rx="2"/><rect width="16" height="64" x="34.5" y=".792" fill="#FF1601" rx="2"/><rect width="16" height="64" x="53.5" y=".792" fill="#FF1601" rx="2"/><rect width="16" height="64" x="72.5" y=".792" fill="#FF1601" rx="2"/><rect width="16" height="64" x="91.5" y=".792" fill="#FF1601" rx="2"/><rect width="16" height="64" x="110.5" y=".792" fill="#FF1601" rx="2"/><path fill="#000" d="M3.85 84.5H.923l4.46-12.92h3.52l4.454 12.92H10.43l-3.237-9.967h-.1L3.85 84.5Zm-.183-5.078h6.914v2.132H3.667v-2.132ZM22.728 84.5l-4.151-5.507h-.934V84.5h-2.731V71.58h2.731v5.16h.55l4.289-5.16h3.4l-5.04 5.993 5.274 6.927h-3.388Zm4.761 0V71.58h5.173c.95 0 1.744.141 2.379.423.635.282 1.112.673 1.432 1.173.32.497.48 1.069.48 1.716 0 .505-.102.949-.304 1.331-.202.379-.48.69-.832.934-.35.24-.749.41-1.199.51v.127c.492.021.953.16 1.381.416.434.257.785.617 1.054 1.08.27.458.404 1.004.404 1.64 0 .685-.17 1.297-.511 1.835-.337.534-.835.957-1.495 1.268-.66.311-1.474.467-2.442.467h-5.52Zm2.732-2.233h2.227c.761 0 1.316-.145 1.665-.435.35-.295.524-.686.524-1.174 0-.357-.086-.673-.259-.946a1.757 1.757 0 0 0-.738-.644c-.315-.155-.692-.233-1.13-.233h-2.29v3.432Zm0-5.28h2.025c.374 0 .706-.066.997-.196a1.66 1.66 0 0 0 .694-.568 1.48 1.48 0 0 0 .258-.877c0-.466-.166-.843-.498-1.129-.328-.286-.795-.429-1.4-.429H30.22v3.199ZM41.46 84.5h-2.927l4.46-12.92h3.52l4.454 12.92h-2.927l-3.236-9.967h-.101L41.46 84.5Zm-.183-5.078h6.914v2.132h-6.914v-2.132Zm17.232-2.448v2.132h-5.892v-2.132h5.892Zm13.323-5.394V84.5h-2.7V73.8H63.91v10.7h-2.7V71.58h10.623Zm2.601 12.92V71.58h5.097c.98 0 1.815.187 2.505.562.69.37 1.215.885 1.577 1.545.366.656.549 1.413.549 2.271 0 .858-.185 1.615-.555 2.271a3.828 3.828 0 0 1-1.609 1.533c-.698.366-1.544.55-2.536.55h-3.249v-2.19h2.807c.526 0 .96-.09 1.3-.271.345-.185.601-.44.77-.763.172-.328.258-.705.258-1.13 0-.429-.086-.803-.258-1.123a1.728 1.728 0 0 0-.77-.75c-.345-.181-.782-.271-1.312-.271h-1.842V84.5h-2.732Zm23.375-6.46c0 1.41-.267 2.608-.802 3.596-.53.988-1.253 1.743-2.17 2.265-.912.517-1.938.776-3.078.776-1.148 0-2.179-.261-3.091-.783-.913-.521-1.634-1.276-2.164-2.264-.53-.989-.795-2.185-.795-3.59 0-1.409.265-2.607.795-3.596.53-.988 1.251-1.74 2.164-2.258.912-.522 1.943-.782 3.09-.782 1.14 0 2.167.26 3.08.782.916.517 1.64 1.27 2.17 2.258.534.989.8 2.187.8 3.596Zm-2.77 0c0-.913-.136-1.682-.41-2.309-.269-.626-.65-1.102-1.142-1.425-.492-.324-1.068-.486-1.728-.486-.66 0-1.237.162-1.729.486-.492.323-.874.799-1.148 1.425-.269.627-.404 1.397-.404 2.31 0 .912.135 1.681.404 2.308.273.627.656 1.102 1.148 1.426.492.324 1.069.485 1.729.485.66 0 1.236-.161 1.728-.485.492-.324.873-.8 1.142-1.426.274-.627.41-1.396.41-2.309Zm9.903-5.072h2.889c1.035 0 1.952.219 2.751.656a4.746 4.746 0 0 1 1.886 1.849c.459.79.688 1.72.688 2.788 0 1.035-.229 1.937-.688 2.706a4.735 4.735 0 0 1-1.886 1.798c-.799.425-1.716.637-2.751.637h-2.889c-1.039 0-1.96-.21-2.763-.63a4.74 4.74 0 0 1-1.893-1.792c-.454-.77-.68-1.678-.68-2.725 0-1.069.228-1.998.687-2.789a4.78 4.78 0 0 1 1.899-1.842c.803-.437 1.72-.656 2.75-.656Zm0 2.284c-.555 0-1.045.111-1.47.334-.42.219-.748.551-.984.997-.235.446-.353 1.003-.353 1.672 0 .639.12 1.17.359 1.596.244.424.577.742.997.952.421.21.904.316 1.451.316h2.908c.551 0 1.033-.108 1.445-.322.416-.215.738-.534.965-.959.231-.425.347-.95.347-1.577 0-.669-.116-1.226-.347-1.672a2.275 2.275 0 0 0-.965-1.003c-.412-.223-.894-.334-1.445-.334h-2.908Zm2.738-3.899V85.03h-2.593V71.353h2.593Zm7.488.227h2.725v8.126h.108l5.583-8.126h2.391V84.5h-2.732v-8.132h-.095l-5.614 8.132h-2.366V71.58Zm12.571 2.252V71.58h10.611v2.252h-3.955V84.5h-2.7V73.832h-3.956Z"/></svg>
