<svg version="1.1" xmlns="http://www.w3.org/2000/svg">
    <symbol fill="currentColor" viewBox="0 0 23 16" id="icon-arrow-left">
        <path  d="M.78 8.967a1 1 0 0 1 0-1.414l6.364-6.364a1 1 0 0 1 1.414 1.414L2.901 8.26l5.657 5.657a1 1 0 1 1-1.414 1.414L.78 8.967Zm21.377.293H1.487v-2h20.67v2Z"></path>
    </symbol>
    <symbol fill="currentColor" viewBox="0 0 22 16" id="icon-arrow-right">
		<path d="M21.695 8.707a1 1 0 0 0 0-1.414L15.331.929a1 1 0 1 0-1.414 1.414L19.574 8l-5.657 5.657a1 1 0 0 0 1.414 1.414l6.364-6.364ZM.318 9h20.67V7H.318v2Z"/>
	</symbol>
	<symbol fill="currentColor" viewBox="0 0 11 17" id="icon-arrow-tooltip">
		<path d="m.893 15.184 1.611 1.611 7.999-7.998L2.504.798 1.048 2.254 7.435 8.64.893 15.184Z" clip-rule="evenodd"/>
	</symbol>
	<symbol fill="none" viewBox="0 0 46 48" id="icon-battery">
		<path stroke="#FB7205" stroke-width="2" d="M6.301 45h29a9 9 0 0 0 0-18h-20a3 3 0 0 1 0-6h20a9 9 0 0 0 0-18h-29"/>
		<path stroke="#FB7205" stroke-width="2" d="M6.301 9h29a3 3 0 1 1 0 6h-20a9 9 0 0 0 0 18h20a3 3 0 1 1 0 6h-29"/>
		<path stroke="#FB7205" stroke-width="2" d="M1.301 11h5V1h-5v10ZM1.301 47h5V37h-5v10Z" clip-rule="evenodd"/>
	</symbol>
    <symbol fill="none" viewBox="0 0 33 28" id="icon-box">
        <path stroke="#fff" stroke-width="2" d="M29.916 15.287V26.23H2.88V15.287"></path>
        <path stroke="#fff" stroke-width="2" d="M7.386 17.218v1.288h5.15v-1.288"></path>
        <path stroke="#fff" stroke-width="2" d="M1.593 7.563v8.368h5.793v-1.287h5.15v1.287h7.724v-1.287h5.15v1.287h5.793V7.563H1.593Z" clip-rule="evenodd"></path>
        <path stroke="#fff" stroke-width="2" d="M20.26 17.218v1.288h5.15v-1.288M12.536 6.276V4.988H8.674v1.288M24.122 6.276V4.988H20.26v1.288M22.191 4.988v-1.93c0-.712-.577-1.288-1.287-1.288h-9.012c-.711 0-1.287.576-1.287 1.287v1.931"></path>
    </symbol>
    <symbol fill="none" viewBox="0 0 33 48" id="icon-heating">
        <path stroke="#505050" stroke-width="2" d="M16.33 1h13a2 2 0 0 1 2 2v34.004l-6 4.996h-18l-6-4.996V3a2 2 0 0 1 2-2h13Z" clip-rule="evenodd"></path>
        <path stroke="#505050" stroke-width="2" d="m4.329 5.498 3 2.502h18l3-2.5M11.33 42v6M21.33 42v6"></path>
        <path stroke="#DC183B" stroke-width="2" d="M19.33 30a3.001 3.001 0 0 1-6 0 3 3 0 1 1 6 0Z" clip-rule="evenodd"></path>
        <path stroke="#DC183B" stroke-width="2" d="M11.33 37h10"></path>
    </symbol>
    <symbol fill="currentColor" viewBox="0 0 20 20" id="icon-search">
        <path d="M7.886.26a7.386 7.386 0 1 0 4.218 13.449l.001-.001 5.477 5.478a.257.257 0 0 0 .368 0l1.476-1.477a.264.264 0 0 0 0-.367l-5.477-5.477A7.386 7.386 0 0 0 7.886.26Zm0 13.034a5.648 5.648 0 1 1 0-11.296 5.648 5.648 0 0 1 0 11.296Z"></path>
    </symbol>
    <symbol fill="none" viewBox="0 0 49 44" id="icon-sewerage">
        <path stroke="#DC183B" stroke-width="2" d="M18.8 17v10a2 2 0 0 1-4 0V5h-12v22c0 7.732 6.269 14 14 14 7.733 0 14-6.268 14-14V17a2 2 0 1 1 4 0v22h12V17c0-7.732-6.267-14-14-14-7.731 0-14 6.268-14 14Z" clip-rule="evenodd"></path>
        <path stroke="#DC183B" stroke-width="2" d="M15.8 5h-14V1h14v4ZM47.8 43h-14v-4h14v4Z" clip-rule="evenodd"></path>
        <path stroke="#505050" stroke-width="2" d="M8.8 19v8a8 8 0 0 0 8 8h3"></path>
        <path stroke="#505050" stroke-width="2" d="m16.8 32 3 3-3 3M40.8 25v-8a8 8 0 0 0-8-8h-2"></path>
        <path stroke="#505050" stroke-width="2" d="m43.8 22-3 3-3-3"></path>
    </symbol>
    <symbol fill="none" viewBox="0 0 29 29" id="icon-tg">
		<path stroke="#fff" stroke-width="1.442" d="M27.697 14.349C27.697 6.98 21.717 1 14.35 1S1 6.981 1 14.35c0 7.367 5.98 13.348 13.349 13.348 7.367 0 13.348-5.98 13.348-13.348Z" clip-rule="evenodd"/>
		<path fill="#fff" d="M8.741 14.299a462.974 462.974 0 0 1 8.37-3.883c1.586-.719 2.073-.581 1.83 1.01-.174 1.143-.677 4.928-1.078 7.284-.238 1.397-.771 1.563-1.61.958-.403-.29-2.44-1.761-2.882-2.107-.403-.314-.96-.693-.262-1.439a962.16 962.16 0 0 1 3.144-3.284c.167-.173-.042-.458-.234-.32-1.71 1.239-4.08 2.957-4.38 3.18-.457.339-.894.494-1.68.247-.593-.186-1.173-.408-1.399-.493-.87-.325-.663-.748.181-1.153Z"/>
	</symbol>
    <symbol fill="none" viewBox="0 0 29 30" id="icon-vk">
        <path stroke="#fff" stroke-width="1.442" d="M28.21 15.046c0-7.368-5.98-13.349-13.349-13.349-7.367 0-13.348 5.981-13.348 13.349s5.98 13.349 13.348 13.349 13.35-5.981 13.35-13.35Z" clip-rule="evenodd"></path>
        <path fill="#fff" fill-rule="evenodd" d="M15.302 19.858s.273-.03.414-.177c.128-.136.123-.392.123-.392s-.017-1.193.549-1.37c.555-.173 1.27 1.155 2.028 1.665.574.387 1.008.303 1.008.303l2.026-.029s1.06-.064.557-.882c-.04-.067-.293-.605-1.506-1.711-1.27-1.156-1.1-.97.43-2.972.931-1.218 1.305-1.964 1.187-2.282-.11-.305-.796-.224-.796-.224l-2.28.015s-.169-.023-.295.05c-.123.073-.202.241-.202.241s-.36.943-.841 1.746c-1.017 1.692-1.422 1.782-1.589 1.677-.387-.245-.29-.984-.29-1.51 0-1.64.255-2.325-.492-2.502-.25-.059-.431-.097-1.066-.104-.814-.008-1.502.003-1.893.19-.259.125-.46.402-.336.42.15.02.491.09.671.33.234.314.227 1.014.227 1.014s.133 1.932-.314 2.17c-.308.166-.73-.17-1.634-1.706-.465-.786-.815-1.656-.815-1.656s-.067-.163-.188-.25a.967.967 0 0 0-.35-.138l-2.168.013s-.325.01-.444.148c-.106.123-.009.379-.009.379s1.697 3.897 3.619 5.861c1.761 1.8 3.762 1.683 3.762 1.683h.907Z" clip-rule="evenodd"></path>
    </symbol>
    <symbol fill="none" viewBox="0 0 49 44" id="icon-water-supply">
        <path stroke="#DC183B" stroke-width="2" d="M15.28 6V4a1 1 0 0 1 1-1h8a1 1 0 0 1 1 1v2M15.28 19v5M25.28 20v4M5.28 24h38M43.28 41h-38"></path>
        <path stroke="#DC183B" stroke-width="2" d="M5.28 43h-4V22h4v21ZM47.28 43h-4V22h4v21Z" clip-rule="evenodd"></path>
        <path stroke="#505050" stroke-width="2" d="m34.28 1-7 7h-15a1 1 0 0 0-1 1v9a1 1 0 0 0 1 1h15a1 1 0 0 0 1-1v-4l8-8h10a1 1 0 0 0 1-1V2a1 1 0 0 0-1-1h-12Z" clip-rule="evenodd"></path>
    </symbol>
    <symbol fill="none" viewBox="0 0 49 48" id="icon-water-treatment">
        <path stroke="#505050" stroke-width="2" d="m34.008 24.464-.935-4.376V1.338"></path>
        <path stroke="#DC183B" stroke-width="2" d="M24.766 28.432a4.676 4.676 0 0 0 4.574 3.733 4.673 4.673 0 0 0 4.668-4.669"></path>
        <path stroke="#505050" stroke-width="2" d="M1.328 6.022h10.271c7.209 0 13.072 5.863 13.072 13.072v5.427M45.212 24.521l.93-4.203V1.338"></path>
        <path stroke="#DC183B" stroke-width="2" d="M34.94 47.068v-4.801c5.904-2.315 10.272-8.056 10.272-14.77M13.495 28.432c.377 6.433 4.44 11.834 10.24 13.957v4.68"></path>
        <path stroke="#505050" stroke-width="2" d="M1.328 17.226h10.271a1.87 1.87 0 0 1 1.868 1.868v5.602M1.328 3.223v9.3M1.328 14.39v5.639M33.072 11.589h13.07M4.13 9.722h3.733M9.731 9.722h1.867M42.409 4.12v1.867M42.409 14.39v1.867M42.409 18.126v1.867M32.139 42.4H30.27M28.404 42.4h-1.867"></path>
        <path stroke="#DC183B" stroke-width="2" d="M10.665 28.432H20"></path>
        <path stroke="#505050" stroke-width="2" d="M20 24.697h-9.335M27.47 24.697H21.87"></path>
        <path stroke="#DC183B" stroke-width="2" d="M21.869 28.432h5.601"></path>
        <path stroke="#505050" stroke-width="2" d="M31.204 1.356h9.337M42.409 1.356h5.602"></path>
        <path stroke="#DC183B" stroke-width="2" d="M31.204 28.432h9.337"></path>
        <path stroke="#505050" stroke-width="2" d="M40.541 24.697h-9.337M48.01 24.697H42.41"></path>
        <path stroke="#DC183B" stroke-width="2" d="M42.409 28.432h5.602"></path>
    </symbol>
    <symbol fill="none" viewBox="0 0 61 39" id="icon-water-well">
        <path stroke="#505050" stroke-width="2" d="M56.285 29.978H46.28M41.278 8.719h15.007M3.762 8.719h13.756M13.767 31.228H3.762M.01 6.218h3.752V33.73H.011M60.036 33.73h-3.751V6.218h3.751"></path>
        <path stroke="#DC183B" stroke-width="2" d="M44.835 27.416a16.802 16.802 0 0 0 1.446-6.817c0-8.69-6.567-15.838-15.007-16.773v-.703c0-1.024-.828-1.907-1.852-1.907h-.049c-1.024 0-1.85.883-1.85 1.907v.703c-8.441.935-15.007 8.083-15.007 16.773 0 2.427.522 4.73 1.445 6.817l-.626.36a1.866 1.866 0 0 0-.684 2.55l.02.032a1.866 1.866 0 0 0 2.54.668l.648-.374c3.076 4.137 7.987 6.829 13.54 6.829 5.55 0 10.461-2.692 13.538-6.83l.648.375a1.866 1.866 0 0 0 2.56-.7 1.866 1.866 0 0 0-.685-2.55l-.625-.36Zm-27.317-6.817c0-5.921 4.336-10.817 10.005-11.719v7.778a4.365 4.365 0 0 0-2.501 3.94c0 .14.027.272.04.409l-6.73 3.886a11.84 11.84 0 0 1-.814-4.294Zm11.88 11.88c-3.7 0-7.002-1.692-9.182-4.343l6.753-3.898a4.365 4.365 0 0 0 4.858 0l6.753 3.898a11.856 11.856 0 0 1-9.181 4.343Zm11.066-7.586-6.73-3.886c.013-.137.041-.27.041-.408a4.367 4.367 0 0 0-2.5-3.94V8.88c5.667.902 10.004 5.798 10.004 11.719 0 1.515-.296 2.96-.815 4.294Z" clip-rule="evenodd"></path>
    </symbol>
    <symbol fill="none" viewBox="0 0 29 30" id="icon-youtube">
        <path stroke="#fff" stroke-width="1.442" d="M28.065 15.046c0-7.368-5.98-13.349-13.349-13.349-7.367 0-13.348 5.981-13.348 13.349s5.98 13.349 13.348 13.349 13.35-5.981 13.35-13.35Z" clip-rule="evenodd"></path>
        <path fill="#fff" fill-rule="evenodd" d="M20.785 17.208v-4.325s0-2.085-2.092-2.085h-7.955s-2.09 0-2.09 2.085v4.325s0 2.085 2.09 2.085h7.955s2.092 0 2.092-2.085Zm-3.712-2.158-3.974 2.328v-4.653l3.974 2.325Z" clip-rule="evenodd"></path>
    </symbol>
</svg>
